# xmcd
#
# Track frame offsets:
#	150
#	21817
#	41805
#	61144
#	77938
#	95635
#	119612
#	134975
#	154435
#	174752
#	199167
#	214501
#	236183
#	253612
#	270661
#	286574
#	302088
#	326752
#
# Disc length: 4623 seconds
#
# Revision: 2
# Processed by: cddbd v1.5.2PL0 Copyright (c) Steve Scherf et al.
# Submitted via: EasyCDDAExtractor 15.3.0.1
#
DISCID=0d120d12
DTITLE=Ricardo Montaner - Gold
DYEAR=2002
DGENRE=Latin
TTITLE0=Caruso
TTITLE1=La Cima Del Cielo
TTITLE2=Me Va A Extrañar (Unchain My Heart)
TTITLE3=Un Dia Feliz
TTITLE4=A Donde Va El Amor
TTITLE5=La Pequeña Venecia
TTITLE6=Solo Con Un Beso
TTITLE7=Tan Enamorados
TTITLE8=Fue Por Ti
TTITLE9=Yo Que Te Ame
TTITLE10=Ojos Negros
TTITLE11=Dejame Llorar
TTITLE12=En El Ultimo Lugar Del Mundo
TTITLE13=Sera
TTITLE14=Necesito De Ti
TTITLE15=Yo Sin Ti
TTITLE16=Mi Querencia
TTITLE17=Vamos Pa' La Conga
EXTD=
EXTT0=
EXTT1=
EXTT2=
EXTT3=
EXTT4=
EXTT5=
EXTT6=
EXTT7=
EXTT8=
EXTT9=
EXTT10=
EXTT11=
EXTT12=
EXTT13=
EXTT14=
EXTT15=
EXTT16=
EXTT17=
PLAYORDER=
